# xmcd
#
# Track frame offsets: 
#        750
#        17939
#        37284
#        62633
#        76238
#        93739
#        113512
#        132687
#        145602
#        163265
#        179575
#        197590
#        215958
#        231593
#        243734
#        251234
#
# Disc length: 3357 seconds
#
# Revision: 0
# Processed by: cddbd v1.4PL0 Copyright (c) Steve Scherf et al.
# Submitted via: ExactAudioCopy v0.90a11
#
DISCID=fd0d1310
DTITLE=Köster and Hocker - Final Verseucht
DYEAR=1900
DGENRE=
TTITLE0=En d'r Klammerjass
TTITLE1=Urlaub
TTITLE2=He am Rhing
TTITLE3=Flurgeburt
TTITLE4=Durch de Wand
TTITLE5=Flachmann
TTITLE6=Schmierpitzpitter
TTITLE7=Et Fischleed
TTITLE8=Blaue Augen
TTITLE9=Leech em Keller
TTITLE10=Hausfreund Hein and die hillije Jeiss
TTITLE11=Em Fejefeuer ungerm Fluss
TTITLE12=Us em nix
TTITLE13=Urlaub (Daachs drop)
TTITLE14=Daten Track
TTITLE15=Daten Track
EXTD=
EXTT0=
EXTT1=
EXTT2=
EXTT3=
EXTT4=
EXTT5=
EXTT6=
EXTT7=
EXTT8=
EXTT9=
EXTT10=
EXTT11=
EXTT12=
EXTT13=
EXTT14=
EXTT15=
PLAYORDER=
